<?xml version="1.0" encoding="UTF-8"?>
<svg id="Layer_1" data-name="Layer 1" xmlns="http://www.w3.org/2000/svg" viewBox="0 0 453.06 400.42">
  <defs>
    <style>
      .cls-1 {
        fill: #1c5959;
      }

      .cls-2 {
        fill: #d4643b;
      }
    </style>
  </defs>
  <path class="cls-1" d="M0,10.76V.76c1.51.74,2.74,1.02,4.44,1.06,41.59,1.04,83.56-.67,125.02-1.1,75.65-.78,154.29-6.16,223.21,30.87,145.52,78.18,130.09,300.39-28.46,354.88-51.12,17.57-104.02,14.03-157.27,12.85-1.49-1.04-1.05-6.17-.92-8.05,2.82-38,67.13-43.92,88.95-68.04,27.52-30.42-31.9-48-50.27-59.67-41.8-26.54,2.74-44.71,29.48-51.13,22.53-5.41,46.71-6.9,69.82-6.66l-32.21,7.27c-11.9,3.95-49.52,12.36-43.23,30.67,3.71,10.79,37.66,21.83,48.13,26.87,27.15,13.06,49.18,31.87,36.81,65.16-6.25,16.83-16.84,21.55-28.5,32.5-1.28,1.2-1.68,1.73.5,1.5,73.04-30.07,90.47-111.67,86.51-183.48-3.53-63.98-34.82-121.08-94.63-147.37-44.56-19.58-93.88-17.66-141.42-12.71l-1.92,245.56,6.11-18.37c7.09-14.26,23.1-24.11,37.87-28.61l-5.96,5.52c-27.23,31.82,12.68,42.28,28.49,59.45,20.73,22.5-18.32,32.5-33.76,37.29-42.6,13.22-97.34,22.15-110.77,72.73H0v-8h15.5c22.02,0,34.98-27.38,34.49-46.51-3.9-93.76,5.22-191.77.06-285.04-.69-12.46-3.71-31.93-13.57-40.43-4.06-3.5-15.79-9.02-20.98-9.02H0Z"/>
  <g>
    <path class="cls-2" d="M270.78,130.03c32.8-3.8,56.58,31.63,37.63,59.63-8.39,12.39-17.66,7.39-30.95,8.05-7.33.37-15.3,1.85-22.73,1.86-29.9-18.02-18.41-65.54,16.05-69.53Z"/>
    <path class="cls-2" d="M229,161.75v12s-35.99-5.01-35.99-5.01c-2.22-2.37,6.63-3.5,7.78-3.71,9.19-1.62,18.99-1.58,28.22-3.28Z"/>
    <path class="cls-2" d="M348,126.76c.42,1.92-.98,2.39-2.09,3.4-4.81,4.37-12.6,10.07-18.01,13.99-1.94,1.41-4.41,3.64-6.38,4.65-.96.49-.84,1.68-1.99-.06l-4.42-7.65c-.27-.92.29-1.29.88-1.82,1.85-1.66,23.84-11.21,27-12.02,1.7-.43,3.25-.71,5.01-.49Z"/>
    <path class="cls-2" d="M257,125.74l-9.95,3.97-13.05-32.95c1.86-.42,2.37,1.03,3.5,1.99,2.63,2.24,20.63,25.47,19.49,26.99Z"/>
    <path class="cls-2" d="M359,166.77c1.92,2-3.01,2.68-3.63,2.83-9.71,2.36-21.37,2.14-31.37,3.16l-.99-11c5.42,1.7,33.37,2.28,35.99,5.01Z"/>
    <path class="cls-2" d="M281.99,121.75c-4.01-1.68-6.96-.3-10.99,0l4.01-36,2.79,1.7,4.2,34.29Z"/>
    <path class="cls-2" d="M232.88,148.63c-.95.55-1.95.03-2.86-.4-2.44-1.15-12.11-8.82-14.94-11.07-3.94-3.11-8.13-6.27-11.09-10.4,11.47,1.46,22.09,8.54,33,12.5,1.69,1.35.52.97.03,2-1.2,2.48-3.27,4.69-4.14,7.37Z"/>
    <path class="cls-2" d="M317.99,96.76c1.66,1.86-11.48,28.33-12.95,32.58l-10.05-3.59,18.02-25.47,4.97-3.52Z"/>
    <path class="cls-2" d="M347,206.74c-7.58-.75-16.06-4.31-23.25-7.24-2.02-.82-5.59-1.86-7.13-2.87-3.37-2.22,2.39-7.85,3.88-10.86l26.5,20.97Z"/>
    <path class="cls-2" d="M238,195.74l-33,12c7.23-9.46,18.01-15.13,27.51-21.98l5.49,9.98Z"/>
  </g>
</svg>